<svg xmlns="http://www.w3.org/2000/svg" viewBox="0 0 512 512"><defs><style>.a{fill:#282828;}.b{fill:#ebebeb;}</style></defs><rect class="a" width="512" height="512" rx="128"/><path class="b" d="M335.48,426.72a33.09,33.09,0,0,1-28.7-16.56L147.88,134.94a33.1,33.1,0,0,1,57.34-33.1l158.9,275.22a33.11,33.11,0,0,1-28.64,49.66Z"/><path class="b" d="M414.9,289.1H97.1a33.1,33.1,0,1,1,0-66.2H414.9a33.1,33.1,0,1,1,0,66.2Z"/><path class="b" d="M176.52,426.72a33.11,33.11,0,0,1-28.64-49.66l158.9-275.22a33.1,33.1,0,1,1,57.34,33.1L205.22,410.16A33.09,33.09,0,0,1,176.52,426.72Z"/></svg>