<svg xmlns="http://www.w3.org/2000/svg" viewBox="0 0 1600 1600"><defs><style>.a,.b{fill:#fff;}.b{stroke:#fff;stroke-miterlimit:10;stroke-width:16px;}</style></defs><path class="a" d="M998.9,997.28a83.08,83.08,0,0,1-72-41.55L528,264.93A83.09,83.09,0,0,1,672,181.84l398.83,690.8A83.1,83.1,0,0,1,998.9,997.28Z"/><path class="a" d="M1198.24,651.87H400.58a83.09,83.09,0,1,1,0-166.18h797.66a83.09,83.09,0,0,1,0,166.18Z"/><path class="a" d="M599.91,997.28A83.11,83.11,0,0,1,528,872.64l398.83-690.8a83.09,83.09,0,0,1,143.92,83.09L672,955.73A83.06,83.06,0,0,1,599.91,997.28Z"/><path class="b" d="M310.62,1150v344.25H269.69l-129-265.52v265.52H100V1150h40.71l129.64,266.22V1150Z"/><path class="b" d="M503.76,1388.67l15.49-.42a204.82,204.82,0,0,1-4.1,42.29q-4.1,19.39-13.27,33.6a64,64,0,0,1-24.23,22.16q-15,8-36.94,8a71.13,71.13,0,0,1-26.88-4.88,53.65,53.65,0,0,1-20.8-15q-8.75-10.18-13.49-26.5t-4.76-39.22V1251.25h38.94V1409q0,15.48,2.87,25.55t7.75,15.9a26.83,26.83,0,0,0,10.84,8.16,33.05,33.05,0,0,0,12.17,2.33q20.79,0,33.18-9.64t17.81-26.08A116.35,116.35,0,0,0,503.76,1388.67Zm-7.3,48.34V1251.25h39.16v243H498.45Z"/><path class="b" d="M633.63,1292.4v201.85H594.47v-243H632.3Zm59.51-38.12.22,37.25a67.06,67.06,0,0,0-8.74-1.41c-2.58-.21-5.56-.32-9-.32a41.2,41.2,0,0,0-19.35,4.33A42.72,42.72,0,0,0,642,1306.26a62.1,62.1,0,0,0-9.52,18.52,111.9,111.9,0,0,0-4.87,23.49l-10.17,6.5a219.73,219.73,0,0,1,3.43-39.85,121.22,121.22,0,0,1,10.73-33q7.29-14.4,18.69-22.52t27.32-8.12a48.74,48.74,0,0,1,8.74,1Q691.6,1253.19,693.14,1254.28Z"/><path class="b" d="M771.9,1150v344.25H732.74V1150Zm121.46,101.25-85.17,110.92-52.66,60.62-2.65-43.59,36.28-50,57.08-78Zm-35.84,243-67.25-118.59,20.13-36.5,92.7,155.09Z"/><path class="b" d="M937.61,1173.67q0-9.95,5.53-16.81t16.59-6.86q11.07,0,16.71,6.86a25.6,25.6,0,0,1,5.64,16.81,24.49,24.49,0,0,1-5.64,16.26q-5.64,6.75-16.71,6.75t-16.59-6.75A24.78,24.78,0,0,1,937.61,1173.67Z"/><rect class="b" x="939.82" y="1251.25" width="38.94" height="243"/><path class="b" d="M1255.53,1293.13v58.22q0,35.43-7.41,62.24t-21.57,44.76a90.15,90.15,0,0,1-34.07,26.92q-19.92,9-44.91,9-24.12,0-44-9a91.92,91.92,0,0,1-34.29-26.92q-14.38-18-22.24-44.76t-7.85-62.24v-58.22q0-35.43,7.74-62.25t22.13-44.75a93,93,0,0,1,34.29-27q19.9-9.09,44-9.09,25,0,45,9.09a90.18,90.18,0,0,1,34.07,27q14,17.94,21.57,44.75T1255.53,1293.13Zm-40.26,58.22v-58.68q0-27.62-4.43-47.52t-13-32.56a54,54,0,0,0-21.24-18.75q-12.61-6.1-29.2-6.1a63.41,63.41,0,0,0-28.21,6.1,55.8,55.8,0,0,0-21.35,18.75q-8.85,12.66-13.61,32.56t-4.76,47.52v58.68q0,27.84,4.76,47.75t13.72,32.67a56,56,0,0,0,21.57,18.87,63.64,63.64,0,0,0,28.1,6.1q16.59,0,29.31-6.1a52.75,52.75,0,0,0,21.24-18.87q8.52-12.76,12.83-32.67T1215.27,1351.35Z"/><path class="b" d="M1459.29,1405a74.38,74.38,0,0,0-2.65-20.82,41.94,41.94,0,0,0-9.29-16.45q-6.64-7.37-18.59-14a226.43,226.43,0,0,0-30.31-13.58,250.88,250.88,0,0,1-36.06-16.45,119.86,119.86,0,0,1-27.54-20.83,83.31,83.31,0,0,1-17.59-26.92q-6.19-15.18-6.2-34.75a97.71,97.71,0,0,1,6.53-36.12,83.91,83.91,0,0,1,47.68-48.1q17-6.9,38-6.9,31.41,0,53,14.38a92.17,92.17,0,0,1,32.63,37.51,113,113,0,0,1,11.06,49.36h-40.71q0-18.87-5.86-33.48a49.47,49.47,0,0,0-18.14-23q-12.29-8.4-32-8.4-17.7,0-29.09,7.13a42.89,42.89,0,0,0-16.82,19.33q-5.42,12.2-5.42,27.84a50.19,50.19,0,0,0,3.54,19.22,48.54,48.54,0,0,0,11,16,84.21,84.21,0,0,0,18.59,13.58,198.77,198.77,0,0,0,26.43,12q23.68,8.07,40.49,17.95t27.43,22.21a79.28,79.28,0,0,1,15.6,27.84q5,15.54,5,35.09,0,20.49-6.53,37a77.59,77.59,0,0,1-18.91,28.31,84.87,84.87,0,0,1-29.87,18.06q-17.48,6.33-39.38,6.33a111.11,111.11,0,0,1-37.28-6.45,101.21,101.21,0,0,1-33.07-19.33,94.27,94.27,0,0,1-23.68-31.87q-8.85-19-8.85-44.06h40.71q0,17.25,4.87,29.57a55,55,0,0,0,13.49,20.36,54.37,54.37,0,0,0,19.81,11.85,74.07,74.07,0,0,0,24,3.8q17.7,0,29.76-6.44a42.17,42.17,0,0,0,18.14-18.41Q1459.29,1421.3,1459.29,1405Z"/></svg>