<?xml version="1.0" encoding="utf-8"?>
<!-- Generator: Adobe Illustrator 25.4.1, SVG Export Plug-In . SVG Version: 6.00 Build 0)  -->
<svg version="1.1" id="Layer_1" xmlns="http://www.w3.org/2000/svg" xmlns:xlink="http://www.w3.org/1999/xlink" x="0px" y="0px"
	 viewBox="0 0 512 512" style="enable-background:new 0 0 512 512;" xml:space="preserve">
<style type="text/css">
	.st0{fill:#FFFFFF;}
</style>
<path class="st0" d="M256,6.31c-141.45,0-256,114.55-256,256C0,375.6,73.28,471.27,175.04,505.18c12.8,2.25,17.59-5.43,17.59-12.15
	c0-6.08-0.31-26.22-0.31-47.68c-64.31,11.84-80.94-15.67-86.06-30.05c-2.89-7.37-15.36-30.1-26.27-36.17
	c-8.95-4.81-21.75-16.65-0.31-16.96c20.17-0.31,34.57,18.57,39.38,26.25c23.04,38.73,59.84,27.83,74.55,21.1
	c2.23-16.63,8.95-27.83,16.32-34.24c-56.97-6.39-116.47-28.47-116.47-126.4c0-27.83,9.91-50.87,26.22-68.79
	c-2.56-6.41-11.51-32.66,2.56-67.85c0,0,21.44-6.72,70.41,26.25c20.48-5.77,42.23-8.64,64-8.64c21.75,0,43.52,2.89,64,8.64
	c48.97-33.28,70.39-26.25,70.39-26.25c14.09,35.19,5.12,61.44,2.56,67.85c16.32,17.92,26.25,40.63,26.25,68.79
	c0,98.24-59.84,119.99-116.8,126.4c9.28,8.01,17.27,23.37,17.27,47.37c0,34.24-0.31,61.75-0.31,70.39c0,6.72,4.81,14.74,17.59,12.18
	C438.74,471.27,512,375.26,512,262.31C512,120.87,397.45,6.31,256,6.31z"/>
</svg>
